<?xml version="1.0" encoding="UTF-8" standalone="no"?>
<!-- Created with Inkscape (http://www.inkscape.org/) -->

<svg
   version="1.1"
   id="svg1"
   width="150.08"
   height="151.67999"
   viewBox="0 0 150.08 151.67999"
   sodipodi:docname="ufcglogonew.svg"
   inkscape:version="1.4.3 (fcd0343856, 2026-01-01)"
   xmlns:inkscape="http://www.inkscape.org/namespaces/inkscape"
   xmlns:sodipodi="http://sodipodi.sourceforge.net/DTD/sodipodi-0.dtd"
   xmlns="http://www.w3.org/2000/svg"
   xmlns:svg="http://www.w3.org/2000/svg">
  <defs
     id="defs1" />
  <sodipodi:namedview
     id="namedview1"
     pagecolor="#ffffff"
     bordercolor="#000000"
     borderopacity="0.25"
     inkscape:showpageshadow="2"
     inkscape:pageopacity="0.0"
     inkscape:pagecheckerboard="0"
     inkscape:deskcolor="#d1d1d1"
     inkscape:zoom="5.3138188"
     inkscape:cx="75.087242"
     inkscape:cy="75.839996"
     inkscape:window-width="1866"
     inkscape:window-height="1011"
     inkscape:window-x="0"
     inkscape:window-y="0"
     inkscape:window-maximized="1"
     inkscape:current-layer="g1" />
  <g
     inkscape:groupmode="layer"
     inkscape:label="Image"
     id="g1">
    <path
       style="fill:#000000"
       d="M 63.520001,150.049 C 44.922574,148.52963 27.922406,142.98973 16.64,134.77205 c -2.594326,-1.8896 -7.6799999,-6.82287 -7.6799999,-7.44984 0,-0.21188 0.7623314,-1.40606 1.6940699,-2.65373 0.931738,-1.24767 2.012597,-2.72392 2.401909,-3.28057 l 0.70784,-1.01208 -6.7085975,-5.54792 c -3.9278795,-3.2483 -6.67923616,-5.74688 -6.63776191,-6.02792 0.0555153,-0.37618 1.12626291,-0.59045 4.95072411,-0.9907 2.6839386,-0.28088 4.9462573,-0.57707 5.0273743,-0.65819 0.08112,-0.0811 -0.27957,-2.4433 -0.8015272,-5.24929 C 8.5220367,96.138859 8.507838,95.999995 8.9905728,95.999995 9.614127,95.999995 30.72,113.38363 30.72,113.89721 c 0,0.16169 -0.736454,1.52623 -1.636565,3.03231 -0.900111,1.50609 -1.56508,2.92107 -1.477708,3.1444 0.231822,0.59258 6.579264,3.83676 10.467373,5.34988 23.329098,9.07888 55.436139,8.3906 77.2869,-1.65681 2.30585,-1.06027 6.2417,-3.15401 6.8337,-3.6353 0.0625,-0.0508 -0.63386,-1.38773 -1.54754,-2.97087 -0.91369,-1.58315 -1.61285,-3.08671 -1.5537,-3.34126 0.0592,-0.25454 3.20354,-3.04374 6.98754,-6.19821 11.5032,-9.589458 14.16553,-11.663826 14.51778,-11.31158 0.21535,0.215358 0.0213,2.014729 -0.58775,5.44959 -0.5001,2.82043 -0.80798,5.22935 -0.68419,5.35314 0.12379,0.12379 2.40222,0.44612 5.06317,0.71629 2.982,0.30276 4.88541,0.63341 4.96143,0.86186 0.0678,0.20387 -2.96865,2.92616 -6.74773,6.04954 l -6.87107,5.67887 2.37418,3.13503 c 1.3058,1.72426 2.37418,3.41231 2.37418,3.75123 0,1.04328 -6.15,6.63257 -10.21254,9.28142 -11.06966,7.21765 -27.27037,12.08873 -44.811425,13.47348 -4.888917,0.38595 -17.151386,0.37968 -21.936034,-0.0112 z m 20,-0.61207 c 18.978409,-1.41243 35.422359,-6.34048 47.001849,-14.08587 2.9073,-1.94466 8.99815,-7.41454 8.99815,-8.08078 0,-0.18372 -1.01693,-1.68697 -2.25984,-3.34056 -1.36162,-1.8115 -2.22016,-3.2505 -2.16,-3.62036 0.0551,-0.33856 2.94749,-2.98444 6.44989,-5.90011 3.58464,-2.98413 6.16277,-5.34624 5.92,-5.42397 -0.23652,-0.0757 -2.35209,-0.31722 -4.70126,-0.53664 -2.93317,-0.27398 -4.32179,-0.53079 -4.43269,-0.81977 -0.1618,-0.42166 1.41288,-9.622711 1.73645,-10.146265 0.26248,-0.424703 -2.58967,1.863823 -11.71181,9.397385 -4.58191,3.784 -8.3375,7.00401 -8.34575,7.15556 -0.008,0.15156 0.70501,1.46756 1.58501,2.92444 0.88,1.45689 1.6,2.87046 1.6,3.14128 0,0.27081 -0.828,0.99078 -1.84,1.59992 -7.93164,4.77422 -19.40122,8.38539 -31.759999,9.99957 -5.41867,0.70773 -18.915686,0.96854 -24.729766,0.47788 -13.560003,-1.14438 -26.471607,-4.7159 -35.506888,-9.8217 -3.627893,-2.0501 -3.619647,-1.7697 -0.216096,-7.34832 l 0.604846,-0.99138 -4.556049,-3.80275 C 16.945045,103.3277 9.852929,97.560286 9.7591427,97.660971 c -0.050732,0.05446 0.3193873,2.317382 0.8224873,5.028709 0.5031,2.71133 0.855498,5.02552 0.783107,5.14265 -0.07239,0.11713 -2.1591897,0.40319 -4.6373292,0.63568 -2.4781395,0.23249 -4.5695973,0.52608 -4.647684,0.65243 -0.078087,0.12635 2.7340309,2.62807 6.2491502,5.55937 3.515119,2.93131 6.387421,5.50752 6.382891,5.72492 -0.0045,0.21739 -1.080555,1.81862 -2.391169,3.55827 l -2.3829341,3.163 0.6406881,0.89976 c 1.953209,2.74303 8.49361,7.69689 14.085274,10.66853 15.26503,8.11246 38.127348,12.28536 58.856377,10.74264 z m -19.056159,-5.20365 c -0.09582,-0.24971 -0.05939,-1.73636 0.08097,-3.30365 0.230326,-2.57198 0.321855,-2.85914 0.939375,-2.9472 0.490873,-0.07 1.033357,0.32961 1.92,1.41431 l 1.235816,1.51187 0.16,-1.25431 c 0.140391,-1.10058 0.273491,-1.26726 1.08604,-1.36 0.907686,-0.10361 0.922026,-0.0814 0.723521,1.12 -0.111384,0.67413 -0.204102,2.12569 -0.206039,3.22569 -0.0035,1.99869 -0.0041,2 -0.943639,2 -0.747674,0 -1.151803,-0.29477 -1.974246,-1.44 -0.568771,-0.792 -1.145439,-1.44 -1.281484,-1.44 -0.136045,0 -0.291634,0.61076 -0.345754,1.35724 -0.07185,0.99102 -0.249763,1.38595 -0.659367,1.46365 -0.308532,0.0585 -0.639368,-0.0979 -0.735191,-0.3476 z m 5.141193,-2.73492 c -0.09077,-0.0908 -0.165034,0.075 -0.165034,0.3683 0,0.96869 -0.780633,0.52726 -2.196023,-1.24181 -1.543696,-1.92943 -1.963977,-2.13377 -1.963977,-0.9549 0,0.54141 0.13939,0.73647 0.443019,0.61995 0.275341,-0.10565 1.03041,0.57766 1.994958,1.80537 l 1.55194,1.97537 0.250076,-1.20362 c 0.137541,-0.66199 0.17581,-1.27789 0.08504,-1.36866 z m 1.754966,-0.0584 v -3.2 h 2.102256 c 1.997083,0 2.097141,0.036 2,0.72 -0.07322,0.51552 -0.352174,0.74876 -0.982256,0.82126 -1.187887,0.13668 -1.123536,0.69874 0.08,0.69874 0.810667,0 0.96,0.12445 0.96,0.8 0,0.67556 -0.149333,0.8 -0.96,0.8 -0.64,0 -0.96,0.16 -0.96,0.48 0,0.32 0.32,0.48 0.96,0.48 0.810667,0 0.96,0.12445 0.96,0.8 0,0.77129 -0.07467,0.8 -2.08,0.8 h -2.08 z m 1.654845,1.28 c -0.119695,-1.25512 -0.101202,-1.28099 0.951544,-1.33121 l 1.073611,-0.0512 -1.072361,-0.13148 c -1.013306,-0.12423 -1.065307,-0.1919 -0.944257,-1.22879 0.08784,-0.75241 -0.0026,-1.09731 -0.287638,-1.09731 -0.306347,0 -0.415744,0.67363 -0.415744,2.56 0,1.86294 0.111219,2.56 0.408456,2.56 0.283544,0 0.371126,-0.39144 0.286389,-1.28 z m 3.465155,0.8 c 0,-1.21537 0.688888,-1.54762 1.224486,-0.59056 0.197086,0.35217 0.494047,0.45355 0.886934,0.30279 0.499959,-0.19186 0.396282,-0.33568 -0.675248,-0.93674 -1.586575,-0.88996 -2.077992,-2.07667 -1.331646,-3.21573 0.990963,-1.5124 4.055474,-1.51856 4.055474,-0.008 0,0.87429 -0.882618,1.41137 -1.275287,0.77602 -0.137882,-0.2231 -0.423459,-0.34804 -0.634616,-0.27766 -0.211157,0.0704 0.168189,0.48418 0.84299,0.91954 0.936236,0.60404 1.250336,1.03337 1.325781,1.81216 0.148847,1.53654 -0.817723,2.33833 -2.818868,2.33833 h -1.6 z m 3.007197,-1.95813 c -0.509958,-0.39945 -1.261968,-1.02805 -1.671132,-1.39688 l -0.743935,-0.67061 0.103935,0.73281 c 0.06553,0.46204 0.547014,0.96929 1.30307,1.37281 0.761539,0.40645 1.203002,0.87356 1.209731,1.28 0.01036,0.6258 0.01853,0.62634 0.368062,0.0241 0.301103,-0.51881 0.211273,-0.73044 -0.569731,-1.34221 z m -18.247423,2.2887 c -0.107703,-0.28067 -0.107125,-0.97387 0.0013,-1.54044 0.196905,-1.02905 0.196349,-1.02879 -0.532155,0.24987 -0.923553,1.62101 -1.859691,1.71891 -2.295079,0.24 -0.374016,-1.27043 -0.736906,-1.33811 -0.87257,-0.16273 -0.06358,0.55086 -0.322259,0.91921 -0.695246,0.99001 -1.127592,0.21403 -1.24385,-0.41465 -0.530443,-2.8684 0.377201,-1.29738 0.758212,-2.61088 0.846691,-2.91888 0.105507,-0.36727 0.479588,-0.56 1.086973,-0.56 0.821363,0 0.965637,0.15381 1.275673,1.36 0.192264,0.748 0.388666,1.50056 0.436449,1.67235 0.04778,0.17179 0.485708,-0.36821 0.973169,-1.2 0.947224,-1.61632 0.928832,-1.60451 2.036581,-1.30775 0.705704,0.18905 0.727938,0.30285 0.64,3.27563 l -0.0911,3.07977 -1.0422,0.10044 c -0.725273,0.0699 -1.10175,-0.0547 -1.238026,-0.40987 z m 1.480226,-2.89057 c 0,-2.49825 -0.275145,-2.9753 -0.911064,-1.57961 -0.216196,0.4745 -0.237852,0.73637 -0.05136,0.62111 0.201801,-0.12472 0.322428,0.46625 0.322428,1.57962 0,0.97838 0.144,1.77888 0.32,1.77888 0.184889,0 0.32,-1.01333 0.32,-2.4 z m -2.755739,1.28964 c 0.422469,-0.64477 0.43238,-0.75756 0.0538,-0.61229 -0.340236,0.13056 -0.602287,-0.29738 -0.982052,-1.60372 -0.28489,-0.97999 -0.624339,-1.84753 -0.75433,-1.92787 -0.129991,-0.0803 -0.40072,0.2894 -0.60162,0.82165 -0.303174,0.8032 -0.288626,0.93831 0.08557,0.79471 0.320528,-0.123 0.60988,0.33152 1.001047,1.57244 0.302611,0.95999 0.579343,1.74544 0.61496,1.74544 0.03562,0 0.297798,-0.35566 0.582625,-0.79036 z m 26.030746,1.8626 c -0.08944,-0.14973 -0.265678,-1.59778 -0.391647,-3.2179 l -0.229034,-2.94566 0.81465,-0.20446 c 0.448057,-0.11246 0.952162,-0.11948 1.120232,-0.0156 0.168071,0.10388 0.40687,1.19743 0.530665,2.43013 0.221716,2.20775 0.238951,2.24126 1.152604,2.24126 0.776025,0 0.927523,0.13067 0.927523,0.8 0,0.66783 -0.152,0.8 -0.92,0.8 -0.506,0 -1.352536,0.0865 -1.88119,0.19224 -0.528655,0.10573 -1.034366,0.0697 -1.123803,-0.08 z m 1.250384,-1.95224 c -0.109091,-0.66 -0.199932,-1.74 -0.201869,-2.4 -0.0025,-0.8427 -0.144059,-1.2 -0.475522,-1.2 -0.335401,0 -0.43162,0.25468 -0.332472,0.88 0.07674,0.484 0.225963,1.564 0.331607,2.4 0.105644,0.836 0.346098,1.52 0.534342,1.52 0.217431,0 0.26992,-0.43766 0.143914,-1.2 z m 3.501702,0.48 c -0.465045,-0.71597 -1.379877,-4.92362 -1.122098,-5.16094 0.07425,-0.0684 0.588937,-0.22147 1.143742,-0.34023 0.988259,-0.21156 1.012968,-0.18796 1.217129,1.16261 0.404953,2.67886 0.559395,3.18369 1.029122,3.36394 0.98829,0.37925 1.418093,-0.60359 1.068981,-2.44445 -0.455255,-2.40055 -0.424379,-2.58093 0.441795,-2.58093 0.919674,0 1.026126,0.2394 1.317874,2.9637 0.213257,1.99137 0.178471,2.16328 -0.594012,2.93577 -0.66288,0.66288 -1.129332,0.82053 -2.427703,0.82053 -1.314794,0 -1.692245,-0.13098 -2.07483,-0.72 z m 1.629174,-0.32 c -0.318443,-0.23326 -0.700946,-1.23366 -0.917643,-2.4 -0.210927,-1.13527 -0.53755,-2 -0.755439,-2 -0.295199,0 -0.288171,0.45851 0.03043,1.98525 0.383299,1.83677 1.032579,2.81475 1.868708,2.81475 0.176,0 0.07428,-0.18 -0.226056,-0.4 z m -41.809687,0.36287 c -1.50136,-0.59902 -1.92658,-1.24286 -1.92658,-2.91708 0,-1.31414 0.15493,-1.72995 0.935384,-2.5104 0.758523,-0.75852 1.209466,-0.93539 2.384943,-0.93539 1.849258,0 3.007434,0.53209 3.583671,1.64641 0.622869,1.2045 0.570725,2.16151 -0.185342,3.40157 -0.947899,1.5547 -2.869517,2.08197 -4.792076,1.31489 z m -0.178668,-1.3764 c -0.521506,-0.79592 -0.387819,-2.88043 0.208364,-3.24889 0.156048,-0.0964 0.279173,-0.34685 0.273611,-0.55646 -0.01899,-0.71561 -1.589887,1.41224 -1.589887,2.15357 0,0.40645 0.298451,1.11842 0.663225,1.58216 0.831106,1.05658 1.121119,1.10198 0.444687,0.0696 z m 4.652088,-1.74315 c 0,-0.48455 -0.209424,-1.16052 -0.465386,-1.50216 -0.4301,-0.57406 -0.451985,-0.53508 -0.288642,0.51407 0.107292,0.68914 -0.02382,1.63222 -0.333655,2.4 l -0.510399,1.26477 0.799041,-0.89784 c 0.441152,-0.4957 0.799041,-1.29244 0.799041,-1.77884 z m -1.931259,1.25772 c 0.878172,-1.64088 0.04742,-3.60542 -1.234516,-2.91935 -0.674872,0.36118 -1.205687,2.20569 -0.87943,3.0559 0.267006,0.69581 1.718666,0.60204 2.113946,-0.13655 z m 43.865692,1.01896 c 0.0079,-0.308 0.200908,-0.992 0.428822,-1.52 0.388574,-0.90019 0.347472,-1.03873 -0.659807,-2.22387 -0.590808,-0.69514 -1.024688,-1.41514 -0.964178,-1.6 0.162364,-0.49605 2.107112,-0.60239 2.657831,-0.14534 0.392136,0.32545 0.506982,0.27328 0.656418,-0.29816 0.134773,-0.51538 0.426012,-0.69263 1.13804,-0.69263 0.78448,0 0.91601,0.10092 0.72995,0.56 -0.94358,2.32811 -0.94533,2.30573 0.27834,3.55888 0.63808,0.65346 1.16015,1.35551 1.16015,1.56012 0,0.2046 -0.52908,0.47126 -1.17575,0.59257 -0.97038,0.18205 -1.271197,0.10269 -1.722233,-0.45431 l -0.54649,-0.67489 -0.189763,0.94882 c -0.150228,0.75114 -0.358102,0.94881 -0.997763,0.94881 -0.561689,0 -0.8036,-0.17071 -0.793567,-0.56 z m 3.206006,-2.1389 c -0.687143,-0.70896 -0.994602,-1.28262 -0.866434,-1.61662 0.123201,-0.32106 0.06951,-0.43789 -0.141359,-0.30757 -0.187013,0.11558 -0.688796,-0.11751 -1.115073,-0.51798 -1.085529,-1.0198 -1.398487,-0.48803 -0.354244,0.60192 0.471169,0.4918 0.856671,1.06629 0.856671,1.27666 0,0.21037 0.181361,0.38249 0.403025,0.38249 0.221664,0 0.582884,0.288 0.802712,0.64 0.219828,0.352 0.642712,0.64 0.939752,0.64 0.40482,0 0.27334,-0.27518 -0.52505,-1.0989 z m -58.196439,0.7149 c -0.2112,-0.2112 -0.384,-0.64772 -0.384,-0.97004 0,-0.8879 -0.883824,-1.04912 -1.520751,-0.2774 -0.553998,0.67124 -0.574275,0.67218 -2.15925,0.10075 -1.18187,-0.4261 -1.626722,-0.76141 -1.702256,-1.28308 -0.121759,-0.84092 -0.334603,-0.88755 -0.847799,-0.18571 -0.322044,0.44042 -0.499811,0.45837 -1.155277,0.11665 -0.426067,-0.22212 -0.824865,-0.44655 -0.886217,-0.49873 -0.185367,-0.15765 2.323043,-5.89844 2.577296,-5.89844 0.129803,0 1.04104,0.35603 2.024973,0.79117 1.757182,0.77711 1.787194,0.81264 1.689124,2 -0.07359,0.89097 -0.289165,1.29189 -0.819844,1.52471 -0.73997,0.32465 -0.854703,0.82568 -0.434546,1.89765 0.205975,0.52551 0.506303,0.28451 2.093553,-1.68 2.7095,-3.3535 3.19729,-3.14963 3.508888,1.46647 l 0.221407,3.28 h -0.910651 c -0.500858,0 -1.08345,-0.1728 -1.29465,-0.384 z m 1.193508,-2.576 c -0.01237,-1.1 -0.12555,-2.26139 -0.25151,-2.58087 -0.215311,-0.54611 -0.266103,-0.5399 -0.848529,0.10367 -0.452695,0.50022 -0.492679,0.65663 -0.14849,0.58088 0.619775,-0.13642 0.846216,1.64295 0.256645,2.0167 -0.31961,0.20262 -0.325992,0.27104 -0.02562,0.27472 0.22,0.003 0.4,0.3649 0.4,0.8049 0,0.44 0.144,0.8 0.32,0.8 0.181599,0 0.310272,-0.865 0.297508,-2 z m -5.893866,-1.17843 c -0.120943,-0.71586 -0.357765,-1.30157 -0.52627,-1.30157 -0.286196,0 -0.07279,2.05257 0.276699,2.66129 0.32876,0.57262 0.457519,-0.12889 0.249571,-1.35972 z m 3.517105,1.18121 c 0.144023,0.13047 0.153954,0.0502 0.02207,-0.17832 -0.184749,-0.32015 -0.343437,-0.32952 -0.691304,-0.0408 -0.248331,0.20609 -0.451512,0.44672 -0.451512,0.53472 0,0.088 0.19325,-3.8e-4 0.429443,-0.19641 0.236194,-0.19602 0.547281,-0.24965 0.691305,-0.11918 z m -4.994233,-2.48278 c 0.106417,-0.088 0.21251,-0.376 0.235762,-0.64 0.02325,-0.264 0.15151,-0.912 0.285016,-1.44 0.371556,-1.46944 -0.173537,-0.71458 -1.142547,1.58224 -0.873846,2.07125 -0.898531,3.22092 -0.03327,1.54939 0.253853,-0.49039 0.548619,-0.96363 0.655036,-1.05163 z m 3.0452,-0.73304 c 0.254605,-0.40363 0.205301,-0.66708 -0.200854,-1.07324 -0.504387,-0.50439 -0.52686,-0.49458 -0.356808,0.1557 0.09982,0.3817 -0.01551,0.93264 -0.256285,1.22433 -0.372527,0.45129 -0.36964,0.50781 0.01937,0.37925 0.251426,-0.0831 0.608985,-0.39182 0.794576,-0.68604 z m -1.47963,-0.9107 c -0.07989,-0.23967 -0.224941,-0.0946 -0.338096,0.33809 -0.139192,0.53227 -0.09755,0.65721 0.139915,0.41975 0.185953,-0.18595 0.275134,-0.52698 0.198181,-0.75784 z m 68.442395,3.51417 c -0.96032,-3.15453 -0.87427,-3.56495 0.71143,-3.39332 0.64718,0.07 0.86368,0.41202 1.3967,2.20608 0.6094,2.05116 0.66484,2.12173 1.6341,2.08 0.78566,-0.0338 1.00329,0.088 1.00329,0.56149 0,0.43955 -0.39324,0.72223 -1.44,1.03514 -2.34688,0.70156 -2.33032,0.71403 -3.30552,-2.48939 z m 2.35314,1.65428 c -0.20157,-0.12458 -0.62765,-1.07057 -0.94684,-2.1022 -0.3192,-1.03163 -0.7654,-1.93738 -0.99156,-2.01277 -0.28397,-0.0947 -0.34108,0.0457 -0.18456,0.45354 0.12465,0.32484 0.46607,1.40304 0.75871,2.396 0.43865,1.48843 0.63729,1.77787 1.1314,1.64866 0.39138,-0.10235 0.47217,-0.23532 0.23285,-0.38323 z m 2.61621,-1.43625 c -0.90898,-1.15558 -2.1259,-4.3156 -1.78874,-4.6449 0.1567,-0.15305 0.65467,-0.36948 1.1066,-0.48097 0.76529,-0.18878 0.87591,-0.0641 1.61193,1.81736 0.5797,1.48187 0.96804,2.04587 1.45758,2.11697 1.07179,0.15566 1.14419,-0.8089 0.21598,-2.87724 -0.71932,-1.60285 -0.78465,-1.96057 -0.40286,-2.20598 0.84364,-0.54226 1.31272,-0.14299 2.0986,1.7863 1.02614,2.51909 0.90855,3.6104 -0.49024,4.54979 -1.46742,0.98548 -3.00491,0.96072 -3.80885,-0.0613 z m 1.04653,-1.01311 c -0.4347,-0.64056 -0.79036,-1.27919 -0.79036,-1.41917 0,-0.66767 -0.67344,-1.91328 -0.94401,-1.74606 -0.41828,0.25851 0.79639,3.06795 1.62992,3.76988 0.96882,0.81586 0.98903,0.69886 0.10445,-0.60465 z M 28.88,135.92944 c -0.396,-0.19099 -0.72,-0.47284 -0.72,-0.62634 0,-0.15349 0.505811,-1.28349 1.124023,-2.51109 0.618213,-1.22761 1.063721,-2.23202 0.990018,-2.23202 -0.0737,0 -0.654707,0.72478 -1.291119,1.61062 -1.455433,2.02586 -2.323021,2.39221 -4.039087,1.70558 C 23.58292,133.33166 23.04,132.65099 23.04,131.4893 c 0,-0.88961 2.23789,-4.76931 2.751038,-4.76931 0.207933,0 0.711785,0.27024 1.119671,0.60052 l 0.741611,0.60052 -1.227178,1.78181 c -1.250937,1.81631 -1.346222,2.7777 -0.275185,2.77654 0.449356,-4.9e-4 1.739501,-1.56648 2.857612,-3.4686 0.173464,-0.2951 1.392431,0.37087 1.392431,0.76073 0,0.27199 0.193586,0.37411 0.492066,0.25957 0.270636,-0.10385 1.13628,0.0572 1.923652,0.35791 2.192053,0.83715 2.655897,2.16848 1.246543,3.57783 -0.655941,0.65594 -1.020005,0.78019 -1.84,0.62794 -0.892493,-0.1657 -1.091459,-0.0683 -1.567377,0.76772 -0.594794,1.04477 -0.708697,1.08116 -1.774884,0.56696 z m 1.627773,-2.06295 c 0.323274,-0.67457 0.784577,-1.6225 1.025116,-2.1065 0.336837,-0.67776 0.346239,-0.88 0.04091,-0.88 -0.442633,0 -2.520523,3.98661 -2.22955,4.27759 0.291954,0.29195 0.533142,0.0243 1.163524,-1.29109 z m 3.028227,-0.4905 c 0.511405,-0.5114 0.486725,-1.37238 -0.05216,-1.81961 -0.353081,-0.29303 -0.406861,-0.20872 -0.282343,0.44265 0.0846,0.44255 -0.02476,1.01981 -0.243023,1.2828 -0.47112,0.56767 0.0234,0.64829 0.577526,0.0942 z m -9.124639,-1.30778 c -0.09078,-0.4749 0.253286,-1.31605 0.980115,-2.39611 0.616003,-0.91538 0.992081,-1.74338 0.835729,-1.84001 -0.156353,-0.0966 -0.626739,0.36961 -1.045302,1.0361 -1.431882,2.28003 -1.548926,2.60601 -1.181903,3.2918 0.449268,0.83947 0.583649,0.80948 0.411361,-0.0918 z m 8.166838,-0.0767 c -0.09852,-0.0985 -0.277455,0.0791 -0.397625,0.39466 -0.173659,0.45607 -0.136903,0.49282 0.179134,0.17914 0.218694,-0.21707 0.317015,-0.47528 0.218491,-0.5738 z m 84.986001,3.69484 c -1.17721,-0.47564 -2.0442,-1.89631 -2.0442,-3.34966 0,-1.85541 1.3266,-3.14833 3.27153,-3.18847 1.20802,-0.0249 1.38112,0.0612 1.47631,0.73438 0.0946,0.66928 0.005,0.74289 -0.73565,0.60138 -0.53721,-0.10269 -1.09926,0.0491 -1.54784,0.41801 l -0.70435,0.57925 0.64,1.21937 c 0.75451,1.43754 1.74375,1.71561 2.70032,0.75904 0.83349,-0.83348 1.61968,-0.84909 1.61968,-0.0321 0,0.84479 -1.15385,1.86712 -2.54281,2.25298 -1.31106,0.36422 -1.24651,0.36404 -2.13299,0.006 z m 0.93672,-0.96861 c -0.77798,-0.31345 -1.38056,-1.27027 -1.7116,-2.71777 -0.17884,-0.78197 -0.26395,-0.85601 -0.45895,-0.39928 -0.55268,1.29451 0.84763,3.46089 2.20997,3.419 0.63933,-0.0197 0.63811,-0.029 -0.0394,-0.30195 z m 4.04208,-3.90419 c -2.095,-2.92451 -2.06839,-2.86123 -1.4066,-3.34514 0.32226,-0.23564 0.82871,-0.42844 1.12544,-0.42844 0.51182,0 3.81816,4.15272 3.81816,4.79554 0,0.35804 -1.05379,0.96446 -1.67597,0.96446 -0.24092,0 -1.07839,-0.89389 -1.86103,-1.98642 z m 1.24503,-0.89358 c -0.74471,-1.056 -1.54026,-1.92 -1.76788,-1.92 -0.53312,0 2.1614,3.79969 2.71088,3.82275 0.22606,0.009 -0.19829,-0.84675 -0.943,-1.90275 z m -104.883478,0.13156 c -1.1239,-0.9457 -1.268188,-1.87724 -0.365589,-2.3603 0.953684,-0.51039 1.394281,-0.40238 1.211394,0.29698 -0.09036,0.34553 0.04033,0.79805 0.290411,1.0056 0.659183,0.54707 0.81147,0.21152 0.417241,-0.91937 -0.869828,-2.49519 0.498967,-4.07228 2.726599,-3.14152 1.336376,0.55837 2.17207,1.98012 1.437198,2.44507 -0.737312,0.4665 -1.675663,0.36814 -1.475063,-0.15462 0.09637,-0.25113 -0.0572,-0.64713 -0.341257,-0.88 -0.457367,-0.37494 -0.489902,-0.33185 -0.284301,0.3766 0.649492,2.23799 0.612574,3.09804 -0.156096,3.63644 -1.078495,0.75541 -2.331666,0.645 -3.460537,-0.30488 z m 2.858477,-0.45459 c 0.604174,-0.60417 0.613527,-0.71363 0.154794,-1.81153 -0.268529,-0.64269 -0.398438,-1.46932 -0.288685,-1.83698 0.183009,-0.61305 0.155798,-0.6266 -0.328295,-0.16353 -0.464311,0.44416 -0.478752,0.68849 -0.119974,2.02992 0.374593,1.40055 0.35765,1.5617 -0.20766,1.97507 -0.338543,0.24754 -0.444009,0.45008 -0.23437,0.45008 0.209639,0 0.670524,-0.28936 1.02419,-0.64303 z m 104.968231,0.34407 c -0.46501,-0.86888 -0.43617,-0.92611 0.52406,-1.03978 0.47043,-0.0557 0.92208,-0.3042 1.00367,-0.55225 0.0998,-0.30335 -0.0157,-0.38806 -0.3526,-0.25876 -1.61184,0.61852 -2.7376,0.59855 -3.3964,-0.0603 -0.90288,-0.90288 -0.84335,-2.01485 0.1725,-3.22212 0.97733,-1.1615 2.13904,-1.21846 2.29652,-0.11261 0.073,0.51286 -0.0883,0.72273 -0.61493,0.8 -0.39267,0.0576 -0.77361,0.28589 -0.84653,0.50728 -0.10143,0.30797 0.0667,0.32676 0.71577,0.08 1.47663,-0.56141 2.95802,-0.3973 3.50854,0.38867 0.7174,1.02423 0.6157,1.97998 -0.3303,3.10424 -0.95286,1.1324 -2.18031,1.29983 -2.6803,0.36559 z m 0.58767,-2.61467 c 0.76862,-0.26794 1.12914,-0.25845 1.48776,0.0392 0.267,0.22159 0.47331,0.25333 0.47331,0.0728 0,-0.78913 -0.91544,-1.1027 -2.08875,-0.71548 -0.63444,0.20939 -1.43202,0.30788 -1.77239,0.21887 -0.61115,-0.15982 -0.81997,0.11047 -0.40553,0.52491 0.3124,0.31239 1.1539,0.26119 2.3056,-0.1403 z m -55.958929,-2.02331 c -1.496,-0.93359 -5.024,-3.10504 -7.84,-4.82545 C 51.243784,112.97755 45.30125,108.63187 39.91382,103.21477 33.653808,96.920277 30.119967,90.507518 28.63533,82.748019 28.231075,80.635171 28.16,74.430349 28.16,41.251848 l 0,-39.0118481 H 74.880001 121.6 V 40.758081 c 0,41.717946 0.0314,40.883005 -1.74905,46.496615 -3.04632,9.6047 -10.9937,18.409194 -25.130949,27.841274 -5.3868,3.59396 -19.442498,11.94586 -20.067769,11.92427 -0.314727,-0.0109 -1.796231,-0.7836 -3.292231,-1.71719 z m 11.492772,-3.9377 c 16.250266,-9.73839 23.685397,-15.3967 29.282327,-22.28451 4.04199,-4.974255 6.53685,-9.951684 7.84655,-15.654478 0.56861,-2.475895 0.61145,-4.858485 0.74766,-41.586364 l 0.1445,-38.9599981 H 74.828398 28.782989 l 0.09019,39.2799981 0.09019,39.279998 0.862107,3.128752 c 3.359494,12.192256 11.558675,21.101092 29.855842,32.439932 10.7133,6.63908 14.717644,9.05697 15.011461,9.06415 0.161025,0.004 3.833025,-2.11442 8.16,-4.70748 z M 67.200001,117.08347 C 53.887832,108.99189 48.42036,105.0361 43.307542,99.796988 37.651077,94.000795 34.312949,87.813931 33.292611,81.235382 33.036433,79.583693 32.956076,71.805337 33.023645,55.199997 L 33.12,31.519998 H 74.880001 116.64 l 0.0935,23.199999 c 0.0639,15.850011 -0.0197,23.999512 -0.26389,25.723635 -1.56413,11.044838 -9.02913,20.561158 -23.629003,30.122068 -6.215686,4.07041 -17.451517,10.71432 -18.107102,10.70698 -0.359427,-0.004 -3.749504,-1.88917 -7.533504,-4.18921 z m 15.68,-1.34504 c 15.56967,-9.40503 22.362919,-14.86158 27.195119,-21.843969 1.7597,-2.542713 3.50727,-5.898392 4.3196,-8.294465 1.41102,-4.162033 1.4339,-4.631328 1.43973,-29.519999 L 115.84,32.319998 H 74.720001 33.6 l 0,22.696844 c 0,14.376129 0.125544,23.59947 0.342452,25.158983 0.958851,6.893882 4.06707,12.814264 9.881467,18.82173 5.309256,5.485555 10.282954,9.114935 23.307224,17.007615 6.509338,3.94465 7.656067,4.53592 8.216975,4.23682 0.358536,-0.19119 3.747883,-2.21779 7.531883,-4.50356 z M 66.877645,115.42381 C 54.029592,107.61998 48.055568,103.24032 43.400239,98.212139 39.633209,94.143399 36.530649,88.804904 35.140602,83.999996 L 34.4,81.439996 V 57.119997 32.799998 H 74.880001 115.36 l -0.0456,23.999999 c -0.0444,23.348387 -0.064,24.069504 -0.72324,26.559999 -1.42224,5.373062 -4.64034,10.826114 -9.13414,15.477699 -3.73391,3.865025 -6.846587,6.365875 -12.976989,10.426235 -6.049924,4.00706 -17.139214,10.7374 -17.683471,10.73249 -0.218091,-0.002 -3.781589,-2.05964 -7.918885,-4.57261 z m 15.219042,-0.64004 c 13.568982,-8.22298 19.300303,-12.4977 24.204183,-18.052723 1.7946,-2.032896 1.85498,-2.156187 1.31022,-2.675366 -0.76133,-0.725563 -22.869828,-17.485841 -24.821213,-18.816759 -0.841568,-0.573981 -2.353568,-1.42955 -3.36,-1.901264 -1.667488,-0.78155 -2.172121,-0.857661 -5.686472,-0.857661 -3.802202,0 -3.890212,0.01667 -6.24,1.181615 -1.310872,0.649889 -5.047404,3.171352 -8.303404,5.603252 -3.256,2.431899 -8.764,6.497238 -12.24,9.034086 -3.476,2.536847 -6.320001,4.78141 -6.320001,4.987916 0,0.532698 3.685427,4.775652 6.02214,6.933164 2.51667,2.32366 6.469214,5.39329 10.137861,7.87326 3.735411,2.5251 17.499199,10.91428 17.936686,10.9326 0.185177,0.008 3.497177,-1.9012 7.36,-4.24212 z M 110.48199,91.279996 c 1.78587,-2.973796 2.5622,-4.753983 3.49849,-8.022391 0.69195,-2.415459 0.70593,-2.86511 0.81522,-26.217608 l 0.11119,-23.759999 -40.024947,0 -40.024946,0 0.09998,24.079999 c 0.09968,24.006762 0.102201,24.087298 0.829212,26.479999 0.751541,2.473433 2.823841,7.029809 3.711275,8.16 0.47324,0.602693 0.527695,0.607646 0.934174,0.08497 0.237402,-0.305264 0.548489,-0.449264 0.691304,-0.319999 0.142815,0.129264 0.172052,0.08087 0.06497,-0.107539 -0.107081,-0.188411 3.899999,-3.994243 8.904623,-8.457406 5.004624,-4.463163 9.065148,-8.14636 9.023389,-8.184883 -0.04176,-0.03852 -1.299927,0.08252 -2.795927,0.268992 -4.475528,0.55785 -6.959784,-0.399979 -3.291167,-1.268942 2.227982,-0.527729 8.577046,-3.658538 8.028333,-3.958879 -0.229441,-0.125586 -1.857166,-0.520725 -3.617166,-0.878086 -3.607836,-0.732557 -6.133218,-1.697654 -6.133572,-2.343997 -1.84e-4,-0.336859 0.759256,-0.439395 3.386667,-0.457251 3.519971,-0.02392 8.02375,-0.236585 8.025752,-0.378965 6.34e-4,-0.04509 -1.618847,-1.141009 -3.598847,-2.435375 -3.559118,-2.326667 -5.670765,-4.158544 -5.263321,-4.565988 0.115513,-0.115512 1.041015,0.162361 2.056672,0.617496 1.015657,0.455135 3.174486,1.116849 4.797399,1.470475 1.622913,0.353626 3.253813,0.805151 3.624222,1.003388 0.598945,0.320545 0.638754,0.295781 0.359735,-0.223791 -0.172555,-0.321322 -1.206084,-1.736222 -2.296732,-3.144222 -1.692162,-2.184541 -3.517975,-5.168433 -3.517975,-5.749362 0,-0.520802 0.976092,-0.02143 1.937226,0.991102 0.606526,0.638957 2.110774,1.811564 3.342774,2.605794 1.232,0.794229 2.636,1.810387 3.12,2.258129 0.827595,0.765597 0.88,0.77558 0.88,0.167641 0,-0.355539 -0.442675,-2.00248 -0.983723,-3.659869 -0.918953,-2.815025 -1.681829,-7.735071 -0.963422,-6.213434 l 0.302162,0.64 0.03746,-0.64 c 0.02253,-0.384832 0.270171,-0.04493 0.621134,0.85252 0.6294,1.609444 1.335798,2.698382 3.428077,5.284504 0.73733,0.911364 1.453147,1.991364 1.590703,2.4 0.22354,0.664068 0.275624,0.607034 0.490414,-0.537025 0.132172,-0.704 0.248612,-2.460912 0.258754,-3.904249 0.03662,-5.211437 1.317183,-7.986231 1.779419,-3.85575 0.1231,1.1 0.641239,3.279069 1.15142,4.842375 0.510182,1.563307 0.933368,3.147307 0.940415,3.52 0.01113,0.588932 0.0787,0.555951 0.516213,-0.251984 0.27687,-0.511285 0.985961,-2.1266 1.575757,-3.589589 1.176556,-2.918443 2.754876,-5.541828 2.961401,-4.922254 0.09952,0.298575 0.206056,0.288331 0.440312,-0.04234 0.217163,-0.306541 0.249507,-0.1984 0.10881,0.363792 -0.80834,3.229913 -1.124942,5.275968 -1.129749,7.301037 -0.0031,1.28757 -0.15567,2.65557 -0.339143,3.039999 -0.183473,0.38443 1.004527,-0.701674 2.64,-2.413564 3.339191,-3.495213 4.905534,-4.764199 5.567185,-4.5103 0.340085,0.130503 0.166028,0.559027 -0.714011,1.75788 -0.640048,0.871921 -1.593143,2.692228 -2.117989,4.045129 -0.524846,1.3529 -1.235721,2.855818 -1.579722,3.339818 -0.895097,1.259377 -0.264887,1.13043 2.938124,-0.601168 3.554722,-1.921739 7.071372,-3.186248 6.56,-2.358832 -0.108774,0.176 -0.01708,0.32 0.203765,0.32 0.220844,0 -0.238658,0.408824 -1.021115,0.908497 -1.517604,0.969133 -2.752367,2.08509 -4.305797,3.891503 -0.529732,0.616 -1.35762,1.428636 -1.839752,1.805859 -1.229091,0.961646 -0.615005,1.073985 2.964232,0.542266 3.697571,-0.549298 6.878667,-0.468196 6.878667,0.175373 0,0.268027 -0.67601,0.616502 -1.708597,0.88076 -0.939728,0.240494 -2.946327,1.08492 -4.45911,1.876502 -1.512782,0.791582 -3.119914,1.443618 -3.571403,1.44897 -1.498492,0.01776 0.04464,0.595427 3.823036,1.431138 1.954994,0.432408 4.229881,1.086031 5.055304,1.452495 1.33093,0.590896 1.43269,0.704703 0.899189,1.005639 -0.335862,0.189453 -1.325273,0.261763 -2.24,0.163708 -0.90113,-0.0966 -2.684469,-0.0062 -3.962974,0.200829 l -2.324556,0.37646 9.114935,8.268862 c 5.013215,4.547873 9.083265,8.435873 9.044555,8.639999 -0.0387,0.204126 0.10532,0.336572 0.32007,0.294323 0.21474,-0.04225 0.54381,0.209752 0.73126,0.56 0.58099,1.085595 1.09834,0.724433 2.64028,-1.843184 z M 102.4,88.852622 c 0,-0.05906 -3.299243,-3.104518 -7.331653,-6.767695 -4.03241,-3.663177 -7.264437,-6.835489 -7.182282,-7.049582 0.168635,-0.439454 5.477185,-1.137418 6.993936,-0.919557 2.007353,0.288329 -0.542181,-0.542096 -4.081712,-1.329482 -1.892942,-0.421093 -3.728942,-0.919345 -4.08,-1.107226 -0.95948,-0.513498 -0.768705,-1.200775 0.401712,-1.447187 0.572,-0.120426 2.103886,-0.800931 3.40419,-1.512234 1.300305,-0.711303 2.956305,-1.488901 3.68,-1.727996 l 1.31581,-0.434717 -2.08,0.15908 c -7.638463,0.584195 -8,0.588008 -8,0.08438 0,-0.267739 0.337331,-0.707826 0.749624,-0.977971 1.297031,-0.849848 6.485892,-6.240854 5.729124,-5.952317 -0.396688,0.151247 -2.09568,0.998344 -3.775537,1.882439 -2.774925,1.460419 -4.943211,2.044071 -4.943211,1.330599 0,-0.152265 0.303215,-0.662321 0.673812,-1.133459 0.370597,-0.471137 1.156589,-2.018664 1.74665,-3.438948 0.590061,-1.420285 1.294846,-2.921162 1.566188,-3.335283 1.118314,-1.706763 0.310367,-1.068374 -2.819514,2.227803 -3.152519,3.320018 -4.355003,4.070066 -4.107889,2.562291 0.05459,-0.333057 0.240116,-2.315419 0.412289,-4.405249 0.172173,-2.089829 0.516164,-4.285829 0.764425,-4.879999 0.24826,-0.594171 0.389156,-1.08031 0.313101,-1.08031 -0.234442,0 -1.696594,3.045994 -2.548161,5.3084 -1.460005,3.878875 -3.040901,5.612888 -3.040901,3.335426 0,-0.525896 -0.432,-2.304789 -0.96,-3.953097 -0.570181,-1.779987 -0.96,-3.687324 -0.96,-4.697159 0,-3.17758 -0.327037,-1.389135 -0.637411,3.48577 -0.397975,6.2508 -0.962623,7.482947 -2.181634,4.760659 -0.334947,-0.748 -1.260032,-2.152 -2.055745,-3.12 -0.795714,-0.968 -1.747875,-2.336 -2.115916,-3.039999 l -0.669163,-1.28 0.20175,1.12 c 0.110962,0.615999 0.610433,2.335012 1.109934,3.820027 0.924238,2.747753 1.186531,5.139972 0.563569,5.139972 -0.189538,0 -0.759242,-0.414627 -1.266009,-0.921394 -0.506767,-0.506766 -1.61169,-1.317422 -2.455385,-1.801456 -0.843694,-0.484035 -2.237959,-1.462817 -3.098365,-2.175071 -1.454311,-1.203897 -1.523182,-1.229123 -0.978895,-0.358544 0.322014,0.515056 1.346728,1.896756 2.277143,3.070444 1.835145,2.314976 2.915604,4.28321 2.551266,4.647549 -0.126261,0.12626 -0.692069,0.03979 -1.257352,-0.19215 -0.565283,-0.231944 -2.323787,-0.708583 -3.907787,-1.0592 -1.584,-0.350617 -3.312,-0.860593 -3.84,-1.133281 -1.986783,-1.026081 -0.129309,0.556539 2.637757,2.247444 4.793333,2.92912 5.447111,4.014752 2.402243,3.989047 -1.012,-0.0085 -3.343956,0.10193 -5.182125,0.245495 -3.844806,0.300288 -3.725707,0.415878 1.663837,1.614807 1.892942,0.421093 3.728942,0.919345 4.08,1.107226 0.999461,0.534895 0.759023,1.185207 -0.527434,1.426548 -0.641148,0.12028 -2.35413,0.861251 -3.806628,1.646603 -1.452497,0.785351 -3.267922,1.551189 -4.034277,1.701861 l -1.393373,0.273949 1.28,0.03718 c 0.704,0.02045 2.399369,-0.133206 3.767487,-0.341451 1.700648,-0.25886 2.591361,-0.274754 2.815869,-0.05025 0.224507,0.224508 -1.852917,2.275237 -6.567488,6.483096 -3.792728,3.385093 -6.895868,6.22042 -6.895868,6.300727 0,0.08031 1.044,-0.623782 2.32,-1.564642 1.276,-0.940861 3.661921,-2.693332 5.302048,-3.89438 1.640127,-1.201049 4.592127,-3.395803 6.56,-4.877231 6.231911,-4.691426 10.041766,-6.006057 15.224856,-5.2535 4.275749,0.620817 6.508694,2.050028 22.113096,14.153636 C 102.38793,89.020415 102.4,89.029262 102.4,88.852622 Z M 45.920001,87.999996 c 0.318555,-0.352 0.507192,-0.64 0.419192,-0.64 -0.088,0 -0.420637,0.288 -0.739192,0.64 -0.318556,0.352 -0.507192,0.64 -0.419192,0.64 0.088,0 0.420636,-0.288 0.739192,-0.64 z m 9.44,-27.960817 c 0,-0.06645 -0.252,-0.318449 -0.56,-0.56 -0.507538,-0.398038 -0.518857,-0.38672 -0.120818,0.120818 0.418038,0.533039 0.680818,0.702553 0.680818,0.439182 z M 43.409661,24.813231 C 40.561754,23.797813 40,22.261716 40,15.489628 v -4.31887 l 2.101146,0.09462 2.101145,0.09462 0.05885,4.991241 c 0.0638,5.410993 0.192802,5.851618 1.817609,6.208485 1.334835,0.293179 2.749604,-0.551239 3.197533,-1.908476 0.221483,-0.671101 0.338289,-2.757177 0.291476,-5.205566 l -0.07812,-4.085684 1.452101,-0.09577 1.4521,-0.09577 -0.131005,4.575773 c -0.07205,2.516676 -0.200453,5.029166 -0.285333,5.583311 -0.470268,3.070175 -4.79667,4.830304 -8.567847,3.485695 z m 5.772953,-1.119151 c 1.937899,-1.181612 2.163968,-1.8839 2.291655,-7.119077 0.112609,-4.61698 0.09892,-4.735004 -0.549031,-4.735004 -0.64205,0 -0.662749,0.144115 -0.612194,4.262396 0.05872,4.783352 -0.257611,6.045655 -1.702225,6.792695 -1.23293,0.637572 -3.268717,0.590301 -4.095173,-0.09509 -0.990608,-0.821527 -1.390875,-3.463813 -1.139167,-7.52 l 0.21347,-3.44 -1.394974,-2.38e-4 L 40.8,11.839522 40.906852,16.55976 c 0.06108,2.69819 0.2667,5.057825 0.48,5.508293 0.205232,0.43343 0.862444,1.11743 1.460471,1.52 1.454572,0.979164 4.811174,1.03534 6.335291,0.106027 z m 31.955891,1.127876 c -3.006227,-1.117238 -4.432622,-3.321423 -4.432622,-6.849661 0,-4.541704 2.703463,-7.06972 7.576992,-7.085268 2.382332,-0.0076 4.654616,0.521969 4.891802,1.140064 0.212108,0.552744 -0.499525,3.012908 -0.871521,3.012908 -0.171697,0 -0.706147,-0.440652 -1.187666,-0.979226 -0.698624,-0.781405 -1.140496,-0.982829 -2.187284,-0.997058 -0.721487,-0.0098 -1.629192,0.152036 -2.017123,0.35965 -2.454261,1.31348 -2.677338,6.751826 -0.361651,8.816634 1.05714,0.942611 3.845496,0.896951 4.885413,-0.08 1.175733,-1.104543 1.577151,-0.929662 1.463555,0.63761 -0.08309,1.146342 -0.246814,1.428444 -1.052111,1.81279 -1.384258,0.660668 -5.177428,0.780301 -6.707784,0.211557 z m 5.997021,-0.797444 c 0.427454,-0.162517 0.859094,-0.508928 0.9592,-0.7698 0.158872,-0.414013 0.07288,-0.41738 -0.676357,-0.02649 -1.349966,0.704306 -4.283286,0.584528 -5.301607,-0.216483 -1.414181,-1.112395 -1.919636,-2.442756 -1.934546,-5.091745 -0.01566,-2.781818 0.555339,-4.147966 2.153321,-5.151965 1.244535,-0.781931 4.033921,-0.704464 4.964702,0.137881 0.72683,0.657773 1.019762,0.676543 1.019762,0.06534 0,-0.662151 -0.939992,-1.085767 -2.92635,-1.318785 -4.455814,-0.522708 -7.95365,2.267947 -7.95365,6.345609 0,4.045075 2.421324,6.300572 6.779168,6.314889 1.176543,0.0039 2.488903,-0.125941 2.916357,-0.288459 z m 13.982404,0.977592 c -3.58508,-1.184819 -5.509377,-4.220848 -5.005465,-7.89729 0.568319,-4.146336 3.243276,-6.210759 8.047535,-6.210759 3.05972,0 5.50209,0.868867 5.13193,1.825674 -0.11921,0.308149 -0.29666,0.95627 -0.39434,1.44027 -0.22495,1.114682 -1.12037,1.160224 -1.81993,0.09257 -0.30228,-0.461342 -1.05415,-0.932358 -1.81557,-1.137388 -2.75118,-0.740815 -4.78209,1.379461 -4.78209,4.992508 0,3.015921 1.68102,5.056471 4,4.855508 l 0.96,-0.08319 -0.0814,-2.32 -0.0814,-2.32 h 2.06255 c 1.1344,0 2.11695,0.108 2.18345,0.24 0.0665,0.132 0.0603,1.497281 -0.0137,3.033957 l -0.13462,2.793957 -1.16741,0.326466 c -1.62428,0.454229 -6.12185,0.687514 -7.08948,0.367725 z m 6.06632,-1.028622 1.61575,-0.346516 v -2.373484 -2.373483 h -1.26598 -1.26598 l -0.094,2.32 -0.094,2.32 -1.85557,0.09643 c -1.73688,0.09026 -1.92437,0.02763 -2.93132,-0.979329 -1.28716,-1.287152 -1.911553,-3.328885 -1.662711,-5.436927 0.387461,-3.282341 2.007051,-5.036725 4.651831,-5.038981 1.44468,-0.0012 3.53758,0.995396 3.58026,1.704902 0.02,0.332776 0.53857,-0.621266 0.59502,-1.094734 0.0454,-0.38114 -1.69355,-0.953262 -3.45102,-1.135373 -4.67408,-0.484334 -8.046489,2.250212 -8.046489,6.524561 0,1.786527 0.72837,3.64219 1.81547,4.62526 1.610949,1.456794 4.952919,1.928819 8.408779,1.18767 z m -46.078668,0.906517 c -0.0079,-0.044 -0.04393,-3.140041 -0.08,-6.88009 l -0.06558,-6.800089 4.24,9e-5 4.24,8.9e-5 v 1.12 1.12 h -2.08 -2.08 v 1.424731 1.42473 l 2,0.09527 2,0.09527 v 1.12 1.12 l -2,0.09527 -2,0.09527 v 3.024731 3.02473 h -2.08 c -1.144,0 -2.086489,-0.036 -2.094419,-0.08 z m 3.282831,-3.68 0.09159,-3.12 h 2.000583 c 2.750627,0 2.750132,-0.733701 -5.83e-4,-0.86473 l -2,-0.09527 v -2.08 -2.08 l 2.16,-0.09462 c 1.633131,-0.07154 2.16,-0.208137 2.16,-0.56 0,-0.378968 -0.653595,-0.46538 -3.52,-0.46538 h -3.52 v 6.24 6.24 h 1.268412 1.268412 z"
       id="path1" />
  </g>
</svg>
