<?xml version="1.0" encoding="UTF-8" standalone="no"?>
<!-- Created with Inkscape (http://www.inkscape.org/) -->

<svg
   version="1.1"
   id="svg1"
   width="469"
   height="474"
   viewBox="0 0 469 474"
   sodipodi:docname="ufcglogonewblack.svg"
   inkscape:version="1.4.3 (fcd0343856, 2026-01-01)"
   xmlns:inkscape="http://www.inkscape.org/namespaces/inkscape"
   xmlns:sodipodi="http://sodipodi.sourceforge.net/DTD/sodipodi-0.dtd"
   xmlns="http://www.w3.org/2000/svg"
   xmlns:svg="http://www.w3.org/2000/svg">
  <defs
     id="defs1" />
  <sodipodi:namedview
     id="namedview1"
     pagecolor="#ffffff"
     bordercolor="#000000"
     borderopacity="0.25"
     inkscape:showpageshadow="2"
     inkscape:pageopacity="0.0"
     inkscape:pagecheckerboard="0"
     inkscape:deskcolor="#d1d1d1"
     inkscape:zoom="1.7004219"
     inkscape:cx="234.64764"
     inkscape:cy="237"
     inkscape:window-width="1866"
     inkscape:window-height="1011"
     inkscape:window-x="0"
     inkscape:window-y="0"
     inkscape:window-maximized="1"
     inkscape:current-layer="g1" />
  <g
     inkscape:groupmode="layer"
     inkscape:label="Image"
     id="g1">
    <path
       style="fill:#000000"
       d="m 208,468.30561 c -9.92583,-0.5855 -33.25816,-3.39569 -44.99002,-5.41869 C 108.05566,453.41077 56.045832,429.16663 33.464723,402.5 l -4.233963,-5 8.004195,-10.79709 c 4.402307,-5.9384 7.837886,-10.93391 7.63462,-11.10113 C 5.0035409,342.80541 2.0435688,340.14902 4.7776826,339.62187 c 1.4972746,-0.28868 8.5054574,-1.07883 15.5737394,-1.75588 8.675515,-0.83102 13.013419,-1.65317 13.349968,-2.53021 0.2742,-0.71455 -0.67144,-7.80142 -2.101422,-15.7486 C 30.169986,311.64 29,304.39349 29,303.48382 c 0,-1.98594 0.640038,-1.4906 37.75,29.21583 14.9875,12.40132 27.25,22.97165 27.25,23.48961 0,0.51796 -2.299078,4.83416 -5.109062,9.59157 -3.591539,6.0806 -4.841111,9.07461 -4.206949,10.07997 1.152551,1.82717 11.285335,7.52093 22.816011,12.82065 26.06581,11.98035 61.11725,20.43591 96.87891,23.37038 18.43422,1.51264 58.4852,0.70111 74.62109,-1.51201 36.3605,-4.98703 69.46081,-14.87363 93.08283,-27.80252 13.59669,-7.44179 12.98536,-5.80007 6.36837,-17.10227 -3.14522,-5.37221 -5.32092,-10.11381 -4.83489,-10.53689 12.15863,-10.58385 64.57704,-53.23812 64.9575,-52.85767 0.19097,0.19098 -0.97486,7.6994 -2.59073,16.68538 -1.61587,8.98599 -2.73924,16.65967 -2.49638,17.05263 0.24286,0.39296 6.6452,1.29263 14.22743,1.99928 7.58223,0.70664 14.57522,1.57385 15.53999,1.92712 1.34862,0.49383 -3.10146,4.67614 -19.25,18.0917 C 432.45185,367.59374 423,375.78476 423,376.19885 c 0,0.41409 3.36254,5.31662 7.4723,10.89451 5.82696,7.90852 7.26972,10.52017 6.55225,11.86076 -0.50602,0.94552 -4.89919,5.50515 -9.7626,10.1325 -33.9702,32.32144 -94.15614,53.79474 -165.12042,58.91211 -12.61091,0.90939 -41.18175,1.07133 -54.14153,0.30688 z m -1.86926,-27.76969 c 0.32274,-0.32273 2.50507,1.89966 4.84964,4.93865 2.48929,3.22658 5.04434,5.52543 6.14123,5.52543 1.65098,0 1.88004,-0.81718 1.89204,-6.75 0.008,-3.7125 0.285,-7.7625 0.61664,-9 0.43804,-1.63455 0.17316,-2.25 -0.96835,-2.25 -1.44601,0 -1.91822,1.41137 -3.01115,9 -0.12613,0.87571 -2.07533,-0.89152 -4.68341,-4.24619 -6.38584,-8.21382 -7.55862,-7.78696 -8.23134,2.99594 -0.37844,6.06587 -0.19162,8.97103 0.60904,9.47116 0.79308,0.49539 1.31846,-0.81683 1.6769,-4.18839 0.28708,-2.70039 0.78603,-5.17386 1.10876,-5.4966 z M 235,449.42843 c 0,-1.12572 -0.78016,-1.48034 -2.75,-1.25 -2.35226,0.27506 -2.79576,-0.0762 -3.06642,-2.42843 -0.28431,-2.47092 -0.005,-2.75 2.75,-2.75 2.05904,0 3.06642,-0.49278 3.06642,-1.5 0,-1.00755 -1.00773,-1.5 -3.06955,-1.5 -2.61155,0 -3.02172,-0.33571 -2.74899,-2.25 0.25184,-1.76762 0.90993,-2.20964 3.06956,-2.06174 1.81169,0.12408 2.74898,-0.30212 2.74898,-1.25 C 235,433.36158 233.6173,433 229.5,433 H 224 v 9 9 h 5.5 c 4.33354,0 5.5,-0.3333 5.5,-1.57157 z m 14.77749,0.0149 c 2.43744,-1.70725 2.95985,-5.71634 0.97251,-7.46317 -0.6875,-0.6043 -2.75277,-1.98991 -4.58948,-3.07915 -2.74903,-1.63026 -3.1252,-2.23861 -2.12756,-3.4407 1.54591,-1.8627 2.44507,-1.83939 4.39848,0.11402 1.43241,1.4324 1.63225,1.42331 2.21715,-0.10092 0.86994,-2.26704 -1.48223,-3.65005 -5.08297,-2.98864 -3.57653,0.65697 -6.56562,3.20538 -6.56562,5.59767 0,1.90026 3.90602,5.4356 7.13933,6.46181 2.40691,0.76392 2.07089,3.79161 -0.47522,4.28195 -0.9971,0.19202 -2.62225,-0.3833 -3.61143,-1.27849 -1.67148,-1.51267 -1.83512,-1.48763 -2.31683,0.35444 -0.28508,1.09014 -0.26727,2.23313 0.0396,2.53998 1.16311,1.16311 7.87198,0.49316 10.00206,-0.9988 z m -52.0078,-8.32198 c 0.24179,-8.06668 0.0887,-8.92508 -1.67354,-9.38593 -1.50726,-0.39415 -2.70086,0.71896 -5.35406,4.993 l -3.41439,5.50024 -1.71559,-6.11431 C 184.27442,431.34682 183.47353,430 181.9762,430 c -1.48612,0 -2.28114,1.30016 -3.51604,5.75 -0.87764,3.1625 -2.01521,7.05465 -2.52793,8.64922 -1.21789,3.78763 -1.21472,3.80183 0.76483,3.42061 1.1285,-0.21733 2.07063,-2.00077 2.81214,-5.32333 l 1.11509,-4.9965 1.87048,5.75 c 1.02876,3.1625 2.35079,5.74954 2.93785,5.74898 0.58706,-5.6e-4 2.33084,-2.25056 3.87507,-5 1.54422,-2.74944 3.0694,-4.99898 3.38929,-4.99898 0.31988,0 0.32082,2.2019 0.002,4.89311 -0.64077,5.41023 -0.33054,6.10689 2.71937,6.10689 1.93694,0 2.10402,-0.63095 2.35125,-8.87868 z M 276.58179,449 c 2.4886,0 3.41821,-0.44193 3.41821,-1.625 0,-1.25976 -0.6518,-1.49464 -2.8999,-1.04502 l -2.89991,0.57998 -0.70418,-7.95498 c -0.69508,-7.85231 -1.3684,-8.95627 -4.32082,-7.08441 -1.00581,0.63769 -1.16795,2.62055 -0.67335,8.23468 0.8171,9.27485 1.1337,10.24858 3.08838,9.4985 C 272.45556,449.27169 274.70177,449 276.58179,449 Z m 20.05165,-4.54253 c 2.29569,-2.29569 2.47843,-3.04812 1.88221,-7.75 C 297.58682,429.38248 297.08012,428 295.3242,428 c -1.09043,0 -1.3841,0.65789 -1.00437,2.25 0.29515,1.2375 0.83203,4.30079 1.19305,6.8073 0.74426,5.16718 -0.75933,7.32921 -4.70784,6.76946 -2.00383,-0.28406 -2.48118,-1.25359 -3.653,-7.41936 -1.26878,-6.676 -1.48905,-7.06563 -3.75,-6.63343 -2.79179,0.53369 -2.73432,0.17645 -1.25635,7.80925 1.45802,7.52978 3.07209,9.41678 8.05475,9.41678 2.83386,0 4.581,-0.69053 6.433,-2.54253 z m -126.78368,-0.9845 C 177.33888,437.17129 173.09955,427 162.98392,427 c -6.32257,0 -9.90429,3.44625 -9.95212,9.57569 -0.0641,8.21073 10.23656,12.43516 16.81796,6.89728 z M 161,443.20275 c -2.10404,-0.70505 -2.96691,-2.26783 -2.98469,-5.4057 -0.023,-4.0531 2.03608,-7.77184 4.66912,-8.43269 3.45626,-0.86747 5.32041,1.25223 5.28377,6.00808 -0.0441,5.72301 -3.0791,9.13351 -6.9682,7.83031 z m 146.90876,-2.37087 1.10442,-3.16813 2.43805,2.29043 c 1.82994,1.71914 3.09765,2.12488 5.08258,1.62669 l 2.64453,-0.66373 -4.10959,-4.45838 -4.10959,-4.45838 2.04074,-4.00019 c 2.00252,-3.92526 2.00439,-4.00019 0.0999,-4.00019 -1.35499,0 -2.14525,0.93053 -2.61793,3.08262 l -0.67705,3.08262 -2.21685,-2.08262 C 305.51602,426.13615 300,425.13676 300,426.70784 c 0,0.38931 1.66096,2.40882 3.69103,4.48779 l 3.69103,3.77996 -1.69103,3.54613 C 303.63351,442.83638 303.57216,444 305.40217,444 c 0.7712,0 1.89917,-1.42566 2.50659,-3.16812 z M 136.33762,429.73192 c -0.42779,-6.51251 -1.05492,-9.7932 -1.93673,-10.13158 -0.76238,-0.29255 -4.0054,2.76472 -7.80718,7.36002 -4.82052,5.82666 -6.1244,8.00575 -5.03943,8.4221 0.83194,0.31924 1.99523,-0.2895 2.69524,-1.4104 2.14334,-3.43204 7.75048,-2.22592 7.75048,1.66715 0,1.59618 0.76915,2.71622 2.25,3.27645 1.2375,0.46817 2.35581,0.76036 2.48513,0.64931 0.12933,-0.11104 -0.0496,-4.53592 -0.39751,-9.83305 z M 129,428.55902 c 0,-0.79254 0.45,-1.7191 1,-2.05902 0.55,-0.33992 1,0.30852 1,1.44098 0,1.13246 -0.45,2.05902 -1,2.05902 -0.55,0 -1,-0.64844 -1,-1.44098 z m 210.80797,7.12212 c 4.63823,-1.38727 5.3546,-3.3306 1.08632,-2.9469 -2.40297,0.21601 -2.76176,-0.28972 -4.61136,-6.5 -1.92009,-6.44692 -3.44452,-8.11817 -5.91344,-6.48299 -0.80765,0.53491 -0.38989,3.10489 1.46278,8.99875 1.42632,4.5375 2.83505,8.24317 3.13052,8.23482 0.29546,-0.008 2.4758,-0.595 4.84518,-1.30368 z M 118.44781,429.25 c -0.56436,-4.31621 -0.40769,-4.84132 1.71555,-5.75 1.70738,-0.7307 2.33664,-1.80791 2.33664,-4 0,-2.44222 -0.65075,-3.31206 -3.5,-4.67837 -6.57877,-3.15474 -6.74623,-3.05825 -10.41418,6.00057 -3.36126,8.30139 -3.36433,8.32425 -1.22775,9.13985 1.82497,0.69665 2.38197,0.27902 3.76405,-2.8222 l 1.62212,-3.63985 0.73348,4.69701 c 0.68105,4.36129 1.37228,5.17911 4.80672,5.68699 0.43145,0.0638 0.50496,-2.0215 0.16337,-4.634 z M 114,420.93426 c 0,-0.58616 0.48138,-1.96521 1.06974,-3.06457 0.84635,-1.58142 1.36403,-1.75459 2.47899,-0.82925 1.03621,0.85998 1.14079,1.67118 0.39507,3.06457 -1.0787,2.01558 -3.9438,2.61801 -3.9438,0.82925 z m 244.6434,6.93103 c 1.29613,-1.21766 2.3566,-2.99543 2.3566,-3.95062 0,-1.34185 -3.62732,-12.28733 -4.53626,-13.68821 -0.0976,-0.15044 -0.87017,-0.008 -1.71678,0.31715 -1.32394,0.50804 -1.17653,1.43144 1.05356,6.59994 2.89419,6.70761 2.38828,9.12835 -2.01883,9.66008 -2.22774,0.26878 -2.83748,-0.43295 -5.31229,-6.11371 -2.23833,-5.13793 -3.16502,-6.32077 -4.64814,-5.93293 -1.01883,0.26643 -2.05134,0.80627 -2.29445,1.19964 -0.58298,0.94327 5.26991,13.27888 6.79081,14.3124 1.95047,1.32544 7.80762,-0.038 10.32578,-2.40374 z M 99.57484,419.02845 c 2.9496,1.12144 5.82347,-0.0357 7.39866,-2.97893 1.55724,-2.90973 0.23601,-4.90966 -4.99453,-7.56018 l -4.771449,-2.41787 -3.953414,8.21426 c -3.917946,8.14057 -3.934577,8.22483 -1.853761,9.39143 1.875115,1.05127 2.287802,0.81368 3.859019,-2.22169 1.58523,-3.06244 2.012359,-3.30266 4.315475,-2.42702 z m -0.425227,-5.45747 c 1.470167,-3.22666 4.115467,-3.45802 3.669937,-0.32098 -0.2059,1.44975 -1.12368,2.36416 -2.58045,2.57098 -2.088705,0.29653 -2.171684,0.12516 -1.089487,-2.25 z m 279.473077,6.94058 C 379.93021,419.65485 381,418.28927 381,417.47695 c 0,-1.97006 -0.61393,-1.86302 -3,0.52305 -2.01267,2.01267 -5.59495,2.59788 -7.55796,1.23469 C 368.57805,417.94027 366,413.6123 366,411.77749 c 0,-2.93685 3.82253,-6.03885 6.58666,-5.3451 2.44486,0.61363 2.98358,-0.0456 1.64803,-2.01667 -1.12168,-1.65542 -6.53536,0.15768 -9.58922,3.21154 -4.69409,4.69408 -2.8811,12.92606 3.34531,15.18955 2.75698,1.00225 6.98223,0.0861 10.63191,-2.30525 z M 87.152025,415.25 c 4.111326,-4.47554 7.018991,-9.16427 6.352193,-10.24318 -1.07701,-1.74263 -1.923684,-1.13072 -4.85469,3.50864 -3.645009,5.76951 -6.333205,7.7242 -8.804134,6.4018 -2.732114,-1.46219 -2.260998,-4.37902 1.643797,-10.17731 l 3.489191,-5.18115 -2.239191,-1.20303 c -2.085052,-1.12022 -2.49733,-0.79789 -5.989191,4.68245 -4.445571,6.97715 -4.644255,9.22851 -1.103977,12.50953 3.651162,3.38378 8.232989,3.26521 11.506002,-0.29775 z m 304.583665,-2.5 c 0.69661,-0.888 -0.5086,-3.30599 -4.1616,-8.34936 -4.86374,-6.71493 -5.25698,-7.02315 -7.26202,-5.69185 -2.09463,1.39078 -2.05885,1.49004 3.00911,8.34936 5.17066,6.99832 6.62036,7.97895 8.41451,5.69185 z M 69.468288,406.03504 c 1.270601,-1.404 1.58303,-2.76004 1.09439,-4.75 C 68.769383,393.98194 68.744333,393 70.351317,393 c 1.71579,0 3.971453,3.3439 2.946833,4.36852 -0.347316,0.34731 0.09196,0.63148 0.976166,0.63148 4.118591,0 1.753553,-5.09743 -3.159706,-6.8102 -5.656494,-1.97187 -8.819654,2.97393 -5.941736,9.29027 0.902883,1.98161 0.896547,2.85051 -0.02752,3.77458 -1.678765,1.67876 -4.669393,-0.37504 -4.56595,-3.13565 0.09479,-2.52981 -0.845676,-2.70801 -2.672804,-0.50646 -1.155867,1.39274 -0.897782,2.00614 1.893332,4.5 3.76654,3.36541 7.164179,3.68959 9.668359,0.9225 z m 333.942822,-2.11177 c 3.00738,-3.57406 3.15439,-4.67089 1.03219,-7.70076 -1.69298,-2.41707 -4.74791,-2.81759 -9.04104,-1.18535 -1.80908,0.68781 -3.06301,0.70209 -3.72272,0.0424 -1.3913,-1.3913 1.01863,-4.07954 3.65719,-4.07954 1.91071,0 1.95437,-0.13747 0.50425,-1.58759 -1.33207,-1.33207 -1.92016,-1.37991 -3.65384,-0.29721 -2.86882,1.79161 -4.52496,5.24506 -3.72462,7.7667 1.03376,3.25709 3.59414,4.14488 8.42062,2.91979 3.05564,-0.7756 4.5481,-0.77045 5.33698,0.0184 1.59224,1.59224 -0.86237,4.17988 -3.96501,4.17988 -2.10884,0 -2.30522,0.2347 -1.25511,1.5 1.86445,2.24652 3.54101,1.83419 6.41111,-1.57673 z M 219.5,387.72139 C 212.35,383.26755 198.175,374.47143 188,368.17446 156.02747,348.38772 139.74973,335.93285 123.26678,318.64405 107.73166,302.34941 97.644579,285.01932 92.204376,265.27735 L 89.510078,255.5 89.228659,131.75 88.947241,8 H 233.97136 378.99548 l -0.56125,122.25 c -0.4808,104.72862 -0.78238,123.32493 -2.10418,129.75 -7.36903,35.81975 -31.41958,65.1851 -79.78383,97.4148 -14.21497,9.47279 -62.316,38.66128 -63.43739,38.49484 -0.33486,-0.0497 -6.45883,-3.73442 -13.60883,-8.18825 z m 40.50205,-24.91993 c 11.27613,-6.8306 25.73809,-15.90635 32.13769,-20.16833 39.76553,-26.48286 60.76481,-51.5651 69.035,-82.4577 1.98205,-7.40379 2.05956,-10.38278 2.19002,-84.17543 L 363.5,99.5 233.7153,99.246252 103.93059,98.992505 l 0.30984,78.253745 c 0.30922,78.10032 0.31429,78.26845 2.58405,85.75375 7.19112,23.7151 22.73086,44.68051 48.09504,64.88732 12.5563,10.0032 23.57955,17.32315 54.08048,35.91196 l 24.5,14.93153 3,-1.75504 c 1.65,-0.96527 12.22592,-7.34371 23.50205,-14.17431 z m -48.04097,-1.97411 C 175.45586,338.68533 159.28801,327.36104 143.78765,313.07731 137.28679,307.0867 125,292.70376 125,291.08445 c 0,-0.4383 8.2125,-6.80801 18.25,-14.15492 10.0375,-7.34691 27.925,-20.52921 39.75,-29.294 11.825,-8.76479 24.2,-17.23116 27.5,-18.81416 3.3,-1.58301 4.875,-2.58948 3.5,-2.23661 -4.59595,1.17948 -11.97041,5.69667 -23.28293,14.26185 -21.36665,16.17757 -47.8816,35.32219 -48.31724,34.88655 -0.34037,-0.34036 26.2599,-24.68274 45.43675,-41.57997 l 2.66342,-2.34681 -4.5,0.63664 c -2.475,0.35014 -8.55,0.8554 -13.5,1.12278 l -9,0.48616 5.5,-1.85628 c 3.025,-1.02096 9.02576,-3.73265 13.33502,-6.02598 4.30927,-2.29334 8.89521,-4.1697 10.19099,-4.1697 1.29577,0 2.62185,-0.43023 2.94684,-0.95607 1.11499,-1.80409 -4.09996,-4.02468 -14.37165,-6.11961 -5.65546,-1.15344 -11.64047,-2.66808 -13.30002,-3.36587 -2.83852,-1.19351 -2.46268,-1.31582 6.34072,-2.06342 5.14696,-0.43708 12.62097,-0.83978 16.60892,-0.89487 4.4458,-0.0614 7.2505,-0.51629 7.25,-1.17585 -0.001,-1.66145 -3.59702,-4.54146 -14.82303,-11.87245 -5.67722,-3.70742 -10.08339,-6.9796 -9.79149,-7.2715 0.2919,-0.29189 2.46189,0.24295 4.82221,1.18855 2.36032,0.9456 7.64648,2.36205 11.74703,3.14767 4.10055,0.78563 8.96377,2.31829 10.80716,3.40591 4.31994,2.54883 4.58561,2.50142 3.78813,-0.67601 -0.69119,-2.7539 -3.32902,-6.74444 -11.02869,-16.68434 -4.91145,-6.34044 -5.8284,-8.8647 -2.27214,-6.2549 1.2375,0.90814 5.90043,4.07564 10.36206,7.03887 4.46163,2.96324 9.0264,6.5501 10.14392,7.9708 1.11752,1.4207 2.3046,2.58309 2.63794,2.58309 1.58048,0 0.27413,-8.0638 -2.89392,-17.86356 -4.38006,-13.54889 -4.66184,-17.80693 -0.70386,-10.63644 1.51795,2.75 5.10708,8.06086 7.97586,11.80191 2.86877,3.74106 5.49245,7.90356 5.83039,9.25 0.66004,2.62984 1.84719,3.14771 2.9872,1.30313 0.38919,-0.62973 1.09082,-7.26723 1.55916,-14.75 0.46834,-7.48277 1.22369,-14.95504 1.67854,-16.60504 0.72642,-2.63511 0.90348,-2.20941 1.45575,3.5 0.34581,3.575 1.77359,9.84132 3.17285,13.92515 1.39926,4.08384 2.54411,9.14634 2.54411,11.25 0,7.65819 4.245,2.94846 9.46071,-10.49644 3.58623,-9.24447 8.51611,-18.09379 7.0632,-12.67871 -0.36893,1.375 -1.03245,7.675 -1.47449,14 -0.44205,6.325 -1.32159,12.79991 -1.95455,14.38869 -2.72488,6.83971 2.41683,3.51279 14.77807,-9.56209 5.15512,-5.45273 9.61486,-9.67213 9.91054,-9.37646 0.29567,0.29568 -0.17637,1.32786 -1.04899,2.29373 -1.81668,2.01081 -7.73252,14.17772 -7.7337,15.90564 -4.3e-4,0.63223 -1.57579,3.48995 -3.50079,6.35049 -1.925,2.86054 -3.5,5.38076 -3.5,5.60049 0,1.71161 6.66259,-0.54983 16.5,-5.60049 12.27705,-6.30321 17.40589,-7.85723 11.46425,-3.47362 -1.88337,1.38951 -6.8083,6.00782 -10.94428,10.26291 -4.13598,4.2551 -8.41997,8.24491 -9.51997,8.86625 -3.92857,2.21907 3.29503,2.72835 16.43763,1.15891 14.7269,-1.75865 18.88552,-1.31541 10.94098,1.16611 -2.95824,0.92403 -8.90437,3.55641 -13.21363,5.84974 -4.30927,2.29334 -9.14677,4.1697 -10.75,4.1697 -1.60324,0 -2.91498,0.39873 -2.91498,0.88606 0,1.59847 6.80425,4.15926 16.53134,6.22159 5.25693,1.11456 11.00044,2.65369 12.76336,3.42028 l 3.2053,1.39379 -6,0.0325 c -3.3,0.0179 -9.43113,0.55474 -13.62473,1.19298 l -7.62473,1.16045 25.35035,23.03721 c 13.94269,12.67046 25.18916,23.19839 24.99215,23.3954 -0.19701,0.19701 -14.92354,-10.70327 -32.72562,-24.22285 C 259.30517,232.54785 250.16129,226.61186 243,225.44301 c -2.08748,-0.34071 -0.8267,0.37628 3.12401,1.7766 3.64321,1.29133 8.59321,3.6425 11,5.22482 5.73274,3.76894 81.6729,61.41794 82.35167,62.51622 0.86582,1.40093 -18.29381,20.84704 -28.81371,29.24454 -5.41092,4.31925 -15.53592,11.60638 -22.5,16.19362 -10.86853,7.1591 -46.54736,29.06367 -52.70089,32.35506 -1.75443,0.9384 -5.03346,-0.72575 -23.5,-11.92652 z M 220.25,225.33772 c -0.6875,-0.27741 -1.8125,-0.27741 -2.5,0 -0.6875,0.27741 -0.125,0.50439 1.25,0.50439 1.375,0 1.9375,-0.22698 1.25,-0.50439 z m 15,-1.06993 c -3.53801,-0.31866 -4.27281,-0.75009 -4.38618,-2.57529 l -0.13618,-2.1925 -0.42624,2.19555 c -0.34214,1.76238 -1.25242,2.27047 -4.61382,2.57529 -2.30317,0.20886 -0.13758,0.37975 4.81242,0.37975 4.95,0 7.0875,-0.17226 4.75,-0.3828 z M 151.16773,76.970134 c 4.487,-1.246263 9.54719,-6.769303 10.26026,-11.198753 0.28965,-1.79926 0.64935,-9.234065 0.79932,-16.52179 L 162.5,35.999182 l -3.5,-0.0014 -3.5,-0.0014 0.32161,12.75182 c 0.39274,15.572185 -0.59829,19.700816 -5.26285,21.925191 -2.29252,1.093228 -4.48978,1.374552 -7.02342,0.899238 -5.68037,-1.065644 -6.7075,-4.577334 -6.33696,-21.665657 L 137.5,35.996763 l -5.86948,0.0016 -5.86947,0.0016 0.458,15.75 c 0.29292,10.07282 0.93222,16.736199 1.7736,18.485977 3.06772,6.379766 13.51805,9.416396 23.17508,6.734157 z M 274.46829,75.612736 C 276.24814,74.446535 277,73.060914 277,70.94701 v -3.006885 l -2.93585,2.170566 c -7.01556,5.186828 -17.5637,2.724636 -20.72329,-4.837317 -2.22482,-5.324742 -1.50275,-17.234622 1.27152,-20.97264 4.38271,-5.905205 15.36657,-6.314885 19.03895,-0.710123 1.95519,2.984001 3.17085,2.134343 3.56289,-2.490197 0.25775,-3.040462 -0.0575,-3.497547 -3.21422,-4.659704 -4.22633,-1.55596 -14.18714,-1.794857 -19,-0.455688 -4.69013,1.305019 -10.34513,6.115162 -12.48113,10.616464 -2.45981,5.183662 -2.26724,15.011265 0.39646,20.232538 2.37408,4.653593 7.03421,8.529403 12.08467,10.050772 4.95781,1.49346 16.38734,0.746653 19.46829,-1.27206 z M 337.25,75.964904 341,74.905992 v -6.871208 c 0,-3.779165 0.27314,-7.583013 0.60699,-8.452997 C 342.11888,58.247832 341.27492,58 336.22045,58 h -5.99352 l 0.13654,7.25 0.13653,7.25 -4,0.260356 c -5.00992,0.32609 -8.29747,-1.336093 -11.21998,-5.672808 -3.1816,-4.721165 -3.24137,-15.604754 -0.11624,-21.165172 4.25906,-7.577961 13.73567,-8.86908 19.8943,-2.710452 1.66741,1.667416 3.24186,2.821466 3.49877,2.564555 0.25692,-0.256912 0.57422,-2.172559 0.70513,-4.256994 0.21984,-3.500401 -0.0293,-3.888319 -3.26198,-5.078606 -4.45196,-1.639242 -15.11075,-1.787586 -20.14156,-0.280321 -6.39908,1.917212 -11.59907,7.139443 -13.45046,13.507985 -3.52865,12.138134 1.7572,23.316943 12.71892,26.898669 4.74382,1.550036 15.54195,1.256054 22.1231,-0.602308 z M 203,67.5 V 58 h 6.5 6.5 V 54.914673 51.829346 L 209.4979,52.164673 202.9958,52.5 202.9979,46.75 203,41 h 6.5 c 6.26667,0 6.5,-0.08974 6.5,-2.5 V 36 l -12.25,-3.73e-4 -12.25,-3.73e-4 v 20.499863 20.499862 l 5.75,5.1e-4 L 203,77 Z"
       id="path1" />
  </g>
</svg>
